<svg xmlns="http://www.w3.org/2000/svg" viewBox="0 0 48 48" fill="none">
  <rect width="48" height="48" rx="8" fill="#fbf2d6"/>
  <!-- Same quill shape as app header icon, adapted for app icon usage -->
  <path
    d="M42 6C33 9 24 17 18 27C14 33 10 39 7 44
       C12 41 17 37 22 33C32 24 39 15 43 7.5
       C43.5 6.6 43 5.7 42 6Z"
    fill="#9c2a1f"
    opacity="0.25"
  />
  <path
    d="M42 6C33 9 24 17 18 27C14 33 10 39 7 44
       C12 41 17 37 22 33C32 24 39 15 43 7.5"
    stroke="#9c2a1f"
    stroke-width="2.3"
    stroke-linecap="round"
    stroke-linejoin="round"
    opacity="0.95"
  />
  <line
    x1="41.5"
    y1="7"
    x2="9.2"
    y2="42.6"
    stroke="#2a1a0a"
    stroke-width="2.2"
    stroke-linecap="round"
    opacity="0.96"
  />
  <path
    d="M37.2 11.5C31 16.5 24.8 23.2 19 31.5"
    stroke="#2a1a0a"
    stroke-width="1.4"
    stroke-linecap="round"
    opacity="0.55"
  />
  <path d="M9.2 42.6L6.4 45.6L10.6 44.2Z" fill="#2a1a0a" opacity="0.96"/>
  <line
    x1="8.8"
    y1="43.5"
    x2="8.0"
    y2="45.0"
    stroke="#2a1a0a"
    stroke-width="1.1"
    stroke-linecap="round"
    opacity="0.82"
  />
</svg>
